<mxfile host="app.diagrams.net" modified="2024-03-24T14:55:03.267Z" agent="Mozilla/5.0 (Windows NT 10.0; Win64; x64) AppleWebKit/537.36 (KHTML, like Gecko) Chrome/123.0.0.0 Safari/537.36" etag="zoQSnlaKaZ3IeKOHB-kE" version="24.1.0" type="github">
  <diagram id="C5RBs43oDa-KdzZeNtuy" name="Page-1">
    <mxGraphModel dx="792" dy="1103" grid="1" gridSize="10" guides="1" tooltips="1" connect="1" arrows="1" fold="1" page="1" pageScale="1" pageWidth="827" pageHeight="1169" math="0" shadow="0">
      <root>
        <mxCell id="WIyWlLk6GJQsqaUBKTNV-0" />
        <mxCell id="WIyWlLk6GJQsqaUBKTNV-1" parent="WIyWlLk6GJQsqaUBKTNV-0" />
        <mxCell id="WIyWlLk6GJQsqaUBKTNV-2" value="" style="rounded=0;html=1;jettySize=auto;orthogonalLoop=1;fontSize=11;endArrow=block;endFill=0;endSize=8;strokeWidth=1;shadow=0;labelBackgroundColor=none;edgeStyle=orthogonalEdgeStyle;" parent="WIyWlLk6GJQsqaUBKTNV-1" edge="1">
          <mxGeometry relative="1" as="geometry">
            <mxPoint x="220" y="120" as="sourcePoint" />
            <mxPoint x="220" y="170" as="targetPoint" />
          </mxGeometry>
        </mxCell>
        <mxCell id="BXQLJwWtu8Fp-hCqg6cI-0" value="Dataset 1" style="shape=parallelogram;perimeter=parallelogramPerimeter;whiteSpace=wrap;html=1;fixedSize=1;" vertex="1" parent="WIyWlLk6GJQsqaUBKTNV-1">
          <mxGeometry x="130" y="60" width="190" height="60" as="geometry" />
        </mxCell>
        <mxCell id="BXQLJwWtu8Fp-hCqg6cI-3" style="edgeStyle=orthogonalEdgeStyle;rounded=0;orthogonalLoop=1;jettySize=auto;html=1;entryX=0.5;entryY=0;entryDx=0;entryDy=0;" edge="1" parent="WIyWlLk6GJQsqaUBKTNV-1" source="BXQLJwWtu8Fp-hCqg6cI-1" target="BXQLJwWtu8Fp-hCqg6cI-4">
          <mxGeometry relative="1" as="geometry">
            <mxPoint x="220" y="290" as="targetPoint" />
          </mxGeometry>
        </mxCell>
        <mxCell id="BXQLJwWtu8Fp-hCqg6cI-11" style="edgeStyle=orthogonalEdgeStyle;rounded=0;orthogonalLoop=1;jettySize=auto;html=1;entryX=0;entryY=0.5;entryDx=0;entryDy=0;" edge="1" parent="WIyWlLk6GJQsqaUBKTNV-1" target="BXQLJwWtu8Fp-hCqg6cI-8">
          <mxGeometry relative="1" as="geometry">
            <mxPoint x="80" y="400" as="targetPoint" />
            <mxPoint x="160" y="210" as="sourcePoint" />
            <Array as="points">
              <mxPoint x="40" y="210" />
              <mxPoint x="40" y="420" />
            </Array>
          </mxGeometry>
        </mxCell>
        <mxCell id="BXQLJwWtu8Fp-hCqg6cI-1" value="Pre-processing" style="rounded=0;whiteSpace=wrap;html=1;" vertex="1" parent="WIyWlLk6GJQsqaUBKTNV-1">
          <mxGeometry x="140" y="170" width="160" height="60" as="geometry" />
        </mxCell>
        <mxCell id="BXQLJwWtu8Fp-hCqg6cI-9" style="edgeStyle=orthogonalEdgeStyle;rounded=0;orthogonalLoop=1;jettySize=auto;html=1;exitX=0.5;exitY=1;exitDx=0;exitDy=0;entryX=0.5;entryY=0;entryDx=0;entryDy=0;" edge="1" parent="WIyWlLk6GJQsqaUBKTNV-1" source="BXQLJwWtu8Fp-hCqg6cI-4" target="BXQLJwWtu8Fp-hCqg6cI-8">
          <mxGeometry relative="1" as="geometry" />
        </mxCell>
        <mxCell id="BXQLJwWtu8Fp-hCqg6cI-4" value="Dummy&amp;nbsp;&lt;span style=&quot;background-color: initial;&quot;&gt;Classifier&lt;/span&gt;" style="rounded=0;whiteSpace=wrap;html=1;" vertex="1" parent="WIyWlLk6GJQsqaUBKTNV-1">
          <mxGeometry x="140" y="280" width="160" height="60" as="geometry" />
        </mxCell>
        <mxCell id="BXQLJwWtu8Fp-hCqg6cI-5" value="Training Data" style="text;html=1;align=center;verticalAlign=middle;resizable=0;points=[];autosize=1;strokeColor=none;fillColor=none;" vertex="1" parent="WIyWlLk6GJQsqaUBKTNV-1">
          <mxGeometry x="220" y="238" width="100" height="30" as="geometry" />
        </mxCell>
        <mxCell id="BXQLJwWtu8Fp-hCqg6cI-15" style="edgeStyle=orthogonalEdgeStyle;rounded=0;orthogonalLoop=1;jettySize=auto;html=1;exitX=0.5;exitY=1;exitDx=0;exitDy=0;entryX=0.5;entryY=0;entryDx=0;entryDy=0;" edge="1" parent="WIyWlLk6GJQsqaUBKTNV-1" source="BXQLJwWtu8Fp-hCqg6cI-8" target="BXQLJwWtu8Fp-hCqg6cI-14">
          <mxGeometry relative="1" as="geometry" />
        </mxCell>
        <mxCell id="BXQLJwWtu8Fp-hCqg6cI-8" value="Trained Model" style="rounded=0;whiteSpace=wrap;html=1;" vertex="1" parent="WIyWlLk6GJQsqaUBKTNV-1">
          <mxGeometry x="140" y="390" width="160" height="60" as="geometry" />
        </mxCell>
        <mxCell id="BXQLJwWtu8Fp-hCqg6cI-13" value="Testing Data" style="text;html=1;align=center;verticalAlign=middle;resizable=0;points=[];autosize=1;strokeColor=none;fillColor=none;" vertex="1" parent="WIyWlLk6GJQsqaUBKTNV-1">
          <mxGeometry x="40" y="180" width="90" height="30" as="geometry" />
        </mxCell>
        <mxCell id="BXQLJwWtu8Fp-hCqg6cI-17" style="edgeStyle=orthogonalEdgeStyle;rounded=0;orthogonalLoop=1;jettySize=auto;html=1;entryX=0.5;entryY=0;entryDx=0;entryDy=0;" edge="1" parent="WIyWlLk6GJQsqaUBKTNV-1" source="BXQLJwWtu8Fp-hCqg6cI-14" target="BXQLJwWtu8Fp-hCqg6cI-16">
          <mxGeometry relative="1" as="geometry" />
        </mxCell>
        <mxCell id="BXQLJwWtu8Fp-hCqg6cI-14" value="SHAP" style="rounded=0;whiteSpace=wrap;html=1;" vertex="1" parent="WIyWlLk6GJQsqaUBKTNV-1">
          <mxGeometry x="140" y="500" width="160" height="60" as="geometry" />
        </mxCell>
        <mxCell id="BXQLJwWtu8Fp-hCqg6cI-16" value="Evaluation" style="rounded=1;whiteSpace=wrap;html=1;" vertex="1" parent="WIyWlLk6GJQsqaUBKTNV-1">
          <mxGeometry x="140" y="610" width="160" height="60" as="geometry" />
        </mxCell>
      </root>
    </mxGraphModel>
  </diagram>
</mxfile>
